<?xml version="1.0" encoding="utf-8"?>
<!-- Generator: Adobe Illustrator 24.1.2, SVG Export Plug-In . SVG Version: 6.00 Build 0)  -->
<svg version="1.1" id="Layer_1" xmlns="http://www.w3.org/2000/svg" xmlns:xlink="http://www.w3.org/1999/xlink" x="0px" y="0px"
	 viewBox="0 0 372.94 36.78" style="enable-background:new 0 0 372.94 36.78;" xml:space="preserve">
<style type="text/css">
	.st0{fill:#221F1F;}
	.st1{fill:#79121C;}
</style>
<g transform="translate(0.000000,415.000000) scale(0.100000,-0.100000)">
	<path class="st0" d="M629.32,4145.87c0-1.39,2.78-3.47,6.25-4.86c3.47-1.39,7.17-3.7,8.1-5.09c0.93-1.62,1.85-20.13,1.85-41.41
		c0-21.28,1.16-43.96,2.54-50.43c5.09-23.6,23.83-36.09,51.36-34.24c17.12,0.93,27.53,6.71,36.55,19.9
		c5.32,7.87,5.55,10.18,6.71,57.38c0.69,28.22,2.08,50.2,3.47,51.59c1.39,1.16,4.4,2.54,6.71,3.01c2.54,0.23,4.86,2.08,5.55,3.7
		c0.69,2.08-4.4,2.78-20.13,2.78c-17.12,0-21.05-0.69-21.05-3.47c0-1.85,1.85-3.47,4.4-3.47c9.25,0,10.64-5.55,11.34-50.9
		c0.69-40.26,0.46-44.19-3.93-52.98c-12.03-23.14-44.65-24.75-59.69-2.54c-5.09,7.4-5.32,9.72-5.32,54.37
		c0,48.82,0.23,50.43,10.18,52.29c2.54,0.46,4.86,2.31,5.55,3.93c0.69,2.08-5.32,2.78-24.75,2.78
		C639.04,4148.19,629.32,4147.26,629.32,4145.87z"/>
	<path class="st0" d="M1858.26,4145.41c0.69-1.62,3.01-3.47,5.55-3.7c9.49-1.85,10.18-5.78,10.18-62.23
		c0-50.9-0.23-54.14-4.63-58.53c-2.54-2.54-6.25-4.63-8.1-4.63c-1.85,0-3.47-0.93-3.47-2.31s8.79-2.31,21.98-2.31
		c13.19,0,21.98,0.93,21.98,2.31s-1.85,2.31-4.16,2.31c-2.54,0-6.25,2.08-8.79,4.86c-3.93,4.4-4.4,9.25-4.86,51.59
		c-0.46,31.7,0.23,45.11,1.85,41.88c1.16-2.54,10.41-26.37,20.36-53.21c10.87-29.38,19.2-48.82,21.28-49.28
		c2.31-0.46,8.79,14.34,22.67,52.05c10.64,28.92,20.36,53.67,21.28,55.06c2.31,2.54,2.54-71.49,0.23-86.76
		c-1.39-8.79-2.78-10.87-9.02-13.88c-4.16-1.85-7.63-4.16-7.63-5.09c0-1.16,11.57-1.85,25.45-1.85c15.5,0,25.45,0.93,25.45,2.31
		s-1.62,2.31-3.47,2.31c-1.85,0-5.55,2.08-8.1,4.63c-4.4,4.4-4.63,7.63-4.63,58.53c0,56.45,0.69,60.38,10.18,62.23
		c2.54,0.23,4.86,2.08,5.55,3.7c0.69,2.08-3.7,2.78-16.19,2.78h-17.12l-19.43-53.21c-10.87-29.15-20.13-53.21-20.82-53.21
		s-9.95,24.06-20.82,53.21l-19.43,53.21h-17.12C1861.97,4148.19,1857.57,4147.49,1858.26,4145.41z"/>
	<path class="st0" d="M2808.66,4146.11c0-1.39,2.54-3.01,5.78-3.93c11.8-3.01,12.72-6.94,12.72-61.54c0-27.53-0.93-52.75-2.31-56.22
		c-1.39-3.93-4.63-6.25-9.25-7.17c-14.81-3.01-5.78-5.55,19.67-5.55c25.22,0,34.47,2.54,19.9,5.32c-9.02,1.85-11.8,10.64-11.8,36.79
		v20.59l6.25-0.69c4.86-0.46,10.41-6.71,28.23-31.23l22.21-30.54l14.58-0.23c14.58,0,19.2,3.24,8.33,6.02
		c-3.93,0.93-12.49,10.18-26.61,28.92c-11.34,15.04-20.59,28.46-20.59,29.61c0,1.16,3.01,2.78,6.71,3.7
		c3.7,0.69,10.64,4.86,15.5,9.02c7.63,6.48,8.79,8.79,9.72,20.13c1.39,16.66-3.24,25.68-16.43,32.62
		c-8.56,4.63-13.65,5.32-46.04,6.02C2820.23,4148.42,2808.66,4147.73,2808.66,4146.11z M2875.75,4135.46
		c9.49-4.86,13.88-12.26,13.88-23.83c0-7.87-1.39-11.34-6.48-16.66c-6.94-6.94-19.9-11.57-32.16-11.57h-7.63v26.14
		c0,14.58,0.69,27.07,1.62,27.76C2847.76,4140.32,2869.04,4138.93,2875.75,4135.46z"/>
	<path class="st1" d="M101.84,4074.16v-43.96h12.72c6.94,0,12.72-0.69,12.72-1.39s-21.52-37.25-47.66-80.97l-47.89-79.59H14.85
		H-2.27v-43.96v-43.96h84.44h84.44v43.96v43.96h-13.88c-7.63,0-13.88,0.46-13.88,1.16c0,0.46,10.64,18.74,23.83,40.26l23.83,39.33
		l8.56-14.34l8.56-14.34l-9.25-0.69l-9.25-0.69v-43.96v-43.73h93.7h93.7v43.96v43.96h-9.25c-5.09,0-9.25,0.46-9.25,0.93
		c0,0.69,3.7,7.4,8.33,15.27l8.56,14.11l23.83-40.02l24.06-40.02l-13.88-0.69l-13.88-0.69v-43.73v-43.96h84.44h84.44v43.96v43.96
		H542.8h-17.35l-48.58,80.97l-48.58,80.97h12.49h12.72v43.96v43.96h-82.13h-82.13v-43.96v-43.96h11.57c6.48,0,11.57-0.69,11.57-1.39
		c0-1.62-32.62-56.45-33.78-56.45c-0.23,0-8.56,12.96-18.05,28.92l-17.35,28.92h12.49h12.72v43.96v43.96h-83.29h-83.29V4074.16z"/>
	<path class="st0" d="M1265.54,4116.49c-9.25-3.01-13.88-6.71-17.35-13.42c-8.1-17.12-2.08-30.31,20.13-45.34
		c17.35-11.8,20.13-15.04,20.36-23.6c0.23-22.44-25.45-22.9-37.02-0.69c-6.48,12.03-12.72,14.58-10.64,4.4
		c0.46-3.7,1.85-11.34,2.54-17.35c0.93-7.17,2.54-11.1,4.63-11.1c1.62,0,3.47,1.16,3.93,2.78c0.69,2.08,2.78,2.08,8.79,0
		c16.89-6.02,31.23-2.31,39.56,10.18c10.64,16.19,3.93,32.85-20.13,49.51c-18.74,12.96-23.6,20.36-19.66,29.38
		c6.02,12.96,21.98,7.87,32.16-10.41c8.1-14.34,10.18-12.26,8.33,7.17c-1.85,19.43-2.54,21.28-6.94,17.58
		c-2.78-2.31-12.49-1.85-22.44,1.39C1270.17,4117.42,1267.39,4117.19,1265.54,4116.49z"/>
	<path class="st0" d="M2453.76,4116.26c-1.16-1.85-6.71-2.31-18.74-1.16c-17.12,1.39-17.12,1.39-24.29-6.25
		c-5.55-6.02-6.94-9.49-6.94-18.28c0-13.65,3.24-18.05,24.29-33.55c18.05-13.42,22.67-21.75,17.35-31.46
		c-7.17-13.42-25.68-9.49-35.86,7.87c-9.95,16.89-12.03,14.81-8.1-8.79c2.54-15.73,3.24-16.89,8.1-12.96
		c2.78,2.31,4.86,2.31,9.49,0.23c3.24-1.39,10.41-2.54,16.19-2.54c21.75,0,35.86,24.99,24.29,43.49
		c-2.78,4.16-9.72,10.87-15.73,15.04c-17.12,11.57-26.14,21.28-26.14,27.99c0,7.63,8.79,13.65,17.12,11.57
		c6.48-1.62,15.96-12.26,18.74-21.05c2.78-9.95,5.78-5.32,5.55,9.25C2459.09,4111.4,2456.54,4120.66,2453.76,4116.26z"/>
	<path class="st0" d="M2515.07,4115.1c-13.42-2.78-28.22-17.35-32.39-32.39c-7.17-25.22,1.85-55.52,19.66-66.4
		c30.31-18.74,66.17,2.78,69.64,41.64C2575.46,4095.44,2548.85,4122.05,2515.07,4115.1z M2537.98,4105.16
		c3.47-2.08,8.1-7.17,10.41-10.87c5.55-9.25,7.4-39.56,3.47-53.44c-7.63-27.99-37.71-31.93-49.28-6.71
		c-6.94,15.5-6.94,43.96,0.23,57.84C2510.91,4107.47,2524.79,4112.79,2537.98,4105.16z"/>
	<path class="st0" d="M3085.12,4116.96c-1.16-0.46-5.32-1.39-8.79-2.08c-3.7-0.93-11.1-5.78-16.89-11.1
		c-24.52-22.67-21.75-71.03,5.09-87.45c17.58-11.1,41.18-7.63,56.22,7.87c10.87,11.1,6.94,15.5-4.4,5.09
		c-19.2-17.12-44.42-12.03-52.98,10.87c-4.16,10.87-3.01,38.4,2.08,49.51c11.1,24.75,40.95,25.22,51.82,0.93
		c2.54-5.09,5.32-9.49,6.48-9.49c0.93,0,1.85,7.17,1.85,15.96c0,15.73-2.54,21.75-7.4,16.89c-1.39-1.39-5.32-1.62-9.49-0.46
		C3097.85,4116.26,3087.67,4117.65,3085.12,4116.96z"/>
	<path class="st0" d="M3420.82,4116.26c-1.16-1.85-6.94-2.31-18.74-1.16c-17.12,1.39-17.12,1.39-24.29-6.25
		c-5.78-6.02-6.94-9.49-6.94-18.51c0-13.42,4.16-19.2,24.52-33.78c15.96-11.34,19.43-15.73,19.43-24.99
		c0-6.02-9.49-15.27-15.96-15.27c-7.17,0-18.28,9.02-22.44,18.28c-5.78,12.26-11.34,12.72-9.25,0.93
		c0.69-4.86,1.39-11.34,1.39-14.58c0-8.79,3.47-13.19,7.63-9.72c2.54,2.08,5.09,2.31,9.49,0.46c3.47-1.16,10.87-2.31,16.66-2.31
		c21.75,0,35.86,24.99,24.29,43.26c-2.54,4.16-12.03,12.72-21.05,19.43c-21.52,15.5-25.91,24.52-16.66,32.85
		c9.02,8.33,22.44,1.62,29.61-14.58c6.25-13.88,9.49-11.8,8.33,5.32C3425.68,4112.33,3423.36,4120.19,3420.82,4116.26z"/>
	<path class="st0" d="M758.88,4112.79c0-1.62,2.31-3.93,5.32-5.09c4.86-2.31,5.09-3.24,5.78-44.65l0.46-42.11l-5.78-2.78
		c-9.95-4.4-6.48-6.48,11.57-6.48c9.95,0,17.35,0.93,17.35,2.31s-1.62,2.31-3.47,2.31c-1.85,0-5.09,2.54-6.94,5.55
		c-3.01,4.4-3.47,11.57-3.01,36.32l0.69,31l28.92-39.79c15.96-21.98,29.61-39.79,30.77-39.79c0.93-0.23,1.62,18.74,1.85,42.11
		c0.23,46.96,1.16,52.75,8.56,55.99c10.41,4.63,5.78,8.1-11.1,8.1c-12.49,0-16.19-0.69-16.19-3.24c0-1.85,2.08-4.16,4.63-4.86
		c6.25-2.08,7.17-7.4,6.48-36.78l-0.69-24.99l-25.45,34.93l-25.22,34.93h-12.26C762.81,4115.8,758.88,4114.87,758.88,4112.79z"/>
	<path class="st0" d="M876.87,4112.79c0-1.62,2.31-3.93,5.32-5.09c5.09-2.31,5.09-3.01,5.09-45.11s0-42.8-5.09-45.11
		c-9.72-4.16-5.55-5.78,15.5-5.78c12.26,0,20.82,0.93,20.82,2.31s-1.39,2.31-3.24,2.31c-1.85,0-5.09,2.31-6.94,5.09
		c-3.01,4.16-3.7,12.26-3.7,40.02c0,40.02,0.93,44.65,8.33,46.5c3.01,0.69,5.55,2.78,5.55,4.63c0,2.54-4.63,3.24-20.82,3.24
		C882.42,4115.8,876.87,4115.1,876.87,4112.79z"/>
	<path class="st0" d="M934.71,4112.56c0-1.85,2.08-3.93,4.4-4.86c3.01-0.93,9.49-13.88,22.21-44.19
		c9.72-23.6,18.51-45.35,19.66-48.58c1.16-3.01,3.24-5.55,4.4-5.55c1.16,0,6.94,13.88,12.96,30.77
		c19.43,54.14,24.52,66.4,29.15,68.94c7.63,3.93,2.54,6.71-13.19,6.71c-11.1,0-14.81-0.69-14.81-3.24c0-1.62,2.08-3.7,4.63-4.4
		s4.63-3.01,4.63-5.55c0-5.32-18.74-58.53-20.59-58.53c-2.31,0-25.22,58.53-24.06,61.77c0.69,1.62,3.24,3.01,5.78,3.01
		s4.16,1.16,3.7,3.01c-0.69,1.85-7.4,3.01-19.9,3.47C938.18,4115.8,934.71,4115.34,934.71,4112.56z"/>
	<path class="st0" d="M1043.44,4112.79c0-1.62,2.31-3.93,5.32-5.09c4.86-2.31,5.09-3.24,5.78-44.65l0.46-42.11l-5.78-2.78
		c-3.24-1.39-5.78-3.47-5.78-4.63c0-0.93,17.12-1.85,38.17-1.85h37.94l2.54,9.95c1.39,5.32,3.01,11.57,3.7,13.88
		c2.08,6.71-4.63,4.4-8.79-3.01c-4.86-8.33-16.43-13.88-29.38-13.88c-15.96,0-16.43,0.46-16.43,22.44v19.43l14.34-0.69
		c13.19-0.69,14.81-1.16,17.58-6.94c5.09-10.87,7.4-7.17,7.4,12.03c0,14.81-0.69,18.51-3.47,18.51c-1.85,0-3.47-2.08-3.47-4.63
		c0-6.25-6.71-9.25-20.59-9.25h-11.8v18.51v18.51h15.04c13.19,0,15.96-0.69,20.82-5.78c3.24-3.01,5.78-6.71,5.78-8.1
		c0-1.16,1.16-2.31,2.31-2.31c1.39,0,2.31,5.78,2.31,12.72v12.72h-37.02C1052.23,4115.8,1043.44,4115.1,1043.44,4112.79z"/>
	<path class="st0" d="M1138.3,4113.02c0-1.62,2.31-4.16,5.32-5.32c4.86-2.31,5.09-3.47,5.78-40.49c0.69-42.8,0-47.66-6.48-49.74
		c-10.18-3.24-3.47-5.78,15.04-5.78c11.57,0,19.67,0.93,19.67,2.31s-0.93,2.31-2.08,2.31c-1.16,0-3.93,1.62-5.78,3.7
		c-5.09,4.86-5.32,37.94-0.46,37.94c1.85,0,10.64-10.41,19.2-23.14l15.73-22.9l12.26-0.23c11.8,0,16.19,3.01,7.87,5.55
		c-5.32,1.85-33.55,40.02-31.7,43.03c0.69,1.39,2.78,2.31,4.4,2.31c1.62,0,5.78,3.01,9.25,6.71c11.8,12.26,8.33,33.31-6.71,41.41
		C1190.12,4115.8,1138.3,4117.88,1138.3,4113.02z M1191.51,4101.92c4.4-4.4,5.55-9.49,4.86-19.66
		c-0.69-7.87-10.87-15.04-21.28-15.04h-9.02v19.67v19.66h10.41C1183.87,4106.54,1188.27,4105.16,1191.51,4101.92z"/>
	<path class="st0" d="M1325.69,4112.33c0-1.85,2.08-3.47,4.63-3.47c7.87,0,9.25-7.4,9.25-46.96c0-33.78-0.46-38.4-4.16-41.64
		c-2.31-2.31-5.55-3.93-6.94-3.93c-1.62,0-2.78-0.93-2.78-2.31s8.79-2.31,21.98-2.31c13.19,0,21.98,0.93,21.98,2.31
		s-1.85,2.31-4.16,2.31c-8.79,0-9.72,4.16-9.72,46.27c0,42.34,0.93,46.27,9.95,46.27c2.31,0,3.93,1.16,3.47,3.01
		c-0.69,1.85-7.87,3.01-22.21,3.47C1329.16,4115.8,1325.69,4115.34,1325.69,4112.33z"/>
	<path class="st0" d="M1382.84,4114.18c-0.93-0.69-1.62-6.94-1.62-13.88c0-13.88,5.32-17.58,7.87-5.32
		c1.39,7.4,8.33,11.57,18.97,11.57h5.55v-42.34c0-43.96-0.93-47.89-9.95-47.89c-2.31,0-3.93-1.16-3.47-2.78
		c0.69-2.08,7.87-3.24,22.21-3.7c17.81-0.46,21.28,0,21.28,3.01c0,1.85-1.39,3.47-3.24,3.47c-1.85,0-5.09,1.62-6.94,3.7
		c-3.01,3.01-3.7,10.41-3.7,45.34v41.88l9.72-1.62c11.8-1.85,15.04-4.4,16.89-13.19c2.54-11.8,5.78-7.17,5.78,8.33v15.04h-38.87
		C1401.81,4115.8,1383.53,4115.1,1382.84,4114.18z"/>
	<path class="st0" d="M1475.38,4114.18c-2.78-2.78-1.85-4.63,4.16-7.17c3.24-1.62,12.26-12.49,20.82-25.91l15.04-23.14v-18.74
		c0-18.74,0-18.74-6.94-21.28c-12.03-4.63-7.63-6.25,15.04-6.25c13.19,0,21.98,0.93,21.98,2.31s-1.39,2.31-3.24,2.31
		c-7.63,0-10.64,6.94-10.64,24.29c0,16.89,0.23,17.58,14.11,40.49c8.33,13.65,16.43,24.52,19.66,25.91
		c3.01,1.39,5.55,3.93,5.55,5.78c0,2.31-4.16,3.01-16.19,3.01c-12.96,0-16.19-0.69-16.19-3.47c0-1.85,1.62-3.47,3.47-3.47
		c2.08,0,4.16-1.39,4.86-3.01c1.39-3.7-17.12-36.79-19.9-35.17c-2.08,1.16-20.82,32.39-20.82,34.47c0,0.93,2.78,2.54,6.02,3.7
		c3.24,1.39,5.09,3.24,4.4,4.63C1514.94,4116.03,1477.69,4116.72,1475.38,4114.18z"/>
	<path class="st0" d="M1648.43,4112.33c-24.52-12.49-34.47-49.28-20.59-77.27c8.79-17.58,20.13-24.52,40.49-24.52
		c13.88,0,16.43,0.69,24.52,7.17c29.61,23.83,27.76,73.8-3.47,92.77C1679.2,4116.72,1659.07,4117.65,1648.43,4112.33z
		 M1682.9,4101.69c9.72-8.33,12.96-18.28,12.96-39.33c0-18.05-3.24-28.69-11.1-37.25c-12.26-13.19-31-9.49-40.02,7.87
		c-4.16,7.87-5.32,13.88-5.32,29.61c-0.23,22.9,4.4,34.93,15.73,41.87C1665.55,4110.71,1673.65,4110.01,1682.9,4101.69z"/>
	<path class="st0" d="M1727.55,4114.18c-3.01-2.78-1.62-5.32,3.01-5.32c7.63,0,9.25-7.4,9.25-44.42c0-40.95-0.93-45.34-8.33-47.2
		c-11.8-3.01-4.63-5.55,15.27-5.55c12.26,0,20.82,0.93,20.82,2.31s-1.39,2.31-3.01,2.31c-7.63,0-10.87,8.1-10.87,26.14v17.81h13.88
		c13.19,0,14.34-0.46,18.05-6.94c2.08-3.7,4.63-6.94,5.78-6.94c0.93,0,1.62,8.33,1.62,18.51s-0.69,18.51-1.62,18.51
		c-1.16,0-3.7-3.24-5.78-6.94c-3.7-6.48-4.86-6.94-18.05-6.94h-14.11l0.69,18.05l0.69,17.81l14.58,0.69
		c15.96,0.69,24.29-2.54,27.07-11.1c2.78-8.79,5.78-4.63,5.78,8.1v12.72h-36.55C1745.6,4115.8,1728.24,4115.1,1727.55,4114.18z"/>
	<path class="st0" d="M2015.12,4112.79c0-1.62,2.31-3.93,5.32-5.09c5.09-2.31,5.09-3.01,5.09-45.11s0-42.8-5.09-45.11
		c-9.72-4.16-5.55-5.78,15.5-5.78c12.26,0,20.82,0.93,20.82,2.31s-1.39,2.31-3.24,2.31s-5.09,2.31-6.94,5.09
		c-3.01,4.16-3.7,12.26-3.7,40.02c0,40.02,0.93,44.65,8.33,46.5c3.01,0.69,5.55,2.78,5.55,4.63c0,2.54-4.63,3.24-20.82,3.24
		C2020.67,4115.8,2015.12,4115.1,2015.12,4112.79z"/>
	<path class="st0" d="M2077.59,4113.02c0-1.62,2.31-4.16,5.32-5.32c4.86-2.31,5.09-3.24,5.78-42.57c0.46-34.93,0-40.72-3.24-44.42
		c-2.31-2.54-5.32-4.4-7.17-4.4c-1.62,0-3.01-0.93-3.01-2.31s7.63-2.31,18.51-2.31s18.51,0.93,18.51,2.31s-1.62,2.31-3.47,2.31
		s-5.09,2.54-6.94,5.55c-3.01,4.4-3.47,11.57-3.01,36.32l0.69,30.77l28.92-39.79c15.96-21.75,29.61-39.56,30.77-39.79
		c0.93,0,1.62,18.97,1.85,42.34c0.23,46.96,1.16,52.75,8.56,55.99c2.78,1.16,5.09,3.47,5.09,5.09c0,2.08-4.86,3.01-17.35,3.01
		c-12.49,0-17.35-0.93-17.35-3.01c0-1.62,2.31-3.93,5.09-5.09c2.78-1.39,5.78-4.86,6.71-8.1c2.31-8.1,2.54-53.21,0.46-52.98
		c-1.16,0-12.72,15.27-26.14,34.01l-24.29,34.01l-12.26,0.69C2080.82,4115.8,2077.59,4115.1,2077.59,4113.02z"/>
	<path class="st0" d="M2190.95,4112.33c0-1.85,0.93-3.47,2.08-3.47s3.93-1.62,5.78-3.7c5.32-5.32,5.32-76.11,0-83.75
		c-1.85-2.78-5.09-5.09-6.94-5.09s-3.24-0.93-3.24-2.31s7.4-2.31,17.35-2.31c18.05,0,21.52,2.08,11.57,6.48l-5.78,2.78v33.78v34.01
		l20.36-27.53c11.1-15.27,24.06-33.08,28.92-39.56c5.09-6.71,9.95-12.26,11.1-12.26s2.08,19.2,2.08,44.88
		c0,24.75,0.69,46.73,1.39,48.82c0.93,2.08,4.16,4.86,7.17,6.02c9.49,3.7,3.47,6.71-13.42,6.71c-16.66,0-21.28-3.47-10.64-8.1
		c4.86-2.31,5.09-3.7,5.78-32.16c0.23-16.66,0.23-29.61-0.23-28.92c-0.46,0.46-12.03,16.19-25.68,35.17l-24.75,34.01h-11.57
		C2193.72,4115.8,2190.95,4114.87,2190.95,4112.33z"/>
	<path class="st0" d="M2300.84,4113.49c-0.69-1.39,1.16-3.24,4.16-4.4c3.01-1.16,6.25-3.93,7.17-6.02
		c0.69-2.08,1.39-20.82,1.39-41.64c0-31.23-0.69-38.4-3.7-41.41c-1.85-2.08-5.09-3.7-6.94-3.7s-3.24-0.93-3.24-2.31
		s14.58-2.31,39.1-2.31h39.1l3.47,13.88c2.54,10.64,2.78,13.88,0.46,13.88c-1.39,0-3.93-2.54-5.32-5.55
		c-1.39-3.24-5.09-7.4-8.1-9.25c-6.48-4.4-24.52-7.17-32.62-5.09c-5.78,1.39-6.02,1.85-6.02,21.28v19.66l14.34-0.69
		c13.19-0.69,14.81-1.16,17.58-6.94c5.09-10.87,7.4-7.17,7.4,12.03c0,14.81-0.69,18.51-3.47,18.51c-1.85,0-3.47-1.39-3.47-3.24
		c0-6.94-6.94-10.64-19.9-10.64h-12.49v18.51v18.51h15.04c13.19,0,15.96-0.69,20.82-5.78c3.24-3.01,5.78-6.71,5.78-8.1
		c0-1.16,1.16-2.31,2.31-2.31c1.39,0,2.31,5.78,2.31,12.72v12.72h-36.78C2317.04,4115.8,2301.77,4114.87,2300.84,4113.49z"/>
	<path class="st0" d="M2581.93,4101.92c0-15.27,3.24-18.28,7.4-6.71c2.54,7.17,9.49,11.34,19.43,11.34h5.55v-42.34
		c0-43.73-0.93-47.89-9.72-47.89c-2.31,0-4.16-0.93-4.16-2.31s8.79-2.31,21.98-2.31c13.19,0,21.98,0.93,21.98,2.31
		s-1.39,2.31-3.24,2.31s-5.09,2.31-6.94,5.09c-5.55,7.63-5.55,82.36,0,84.44c7.4,2.78,18.05-2.54,22.44-11.57
		c2.08-4.63,4.4-8.56,5.09-8.56s1.16,6.71,1.16,15.04v15.04h-40.49h-40.49V4101.92z"/>
	<path class="st0" d="M2683.73,4069.99c-9.72-25.91-19.43-47.89-22.44-50.9s-5.32-5.78-5.32-6.25c0-0.69,6.71-1.16,15.04-1.16
		c8.33,0,15.04,0.69,15.04,1.39s-2.31,3.24-4.86,5.32c-4.86,3.93-4.86,4.4-1.62,14.34l3.47,10.18l17.35,0.69l17.58,0.69l3.7-11.1
		c3.7-10.64,3.7-11.34-0.93-15.04c-2.54-2.08-4.63-4.4-4.63-5.09s8.33-1.39,18.51-1.39c18.74,0,21.98,1.39,14.11,6.25
		c-2.54,1.62-12.03,21.98-23.37,50.2c-10.41,26.14-20.13,47.66-21.75,47.66C2702.24,4115.8,2693.21,4095.21,2683.73,4069.99z
		 M2706.4,4074.85c2.54-7.4,5.32-15.27,6.25-17.35c1.39-3.7,0.23-4.16-11.34-4.16c-7.17,0-12.96,0.93-12.96,2.31
		c0,1.16,1.85,7.17,4.16,13.19c2.54,6.02,5.09,12.96,5.78,15.27c0.93,2.08,1.85,3.93,2.54,3.93
		C2701.31,4088.04,2703.86,4082.02,2706.4,4074.85z"/>
	<path class="st0" d="M2956.26,4110.48c-23.37-14.11-31.7-49.05-18.05-75.65c17.35-33.78,64.08-33.31,80.05,0.69
		c6.94,15.27,7.63,39.79,1.16,53.67c-5.09,10.87-14.81,20.59-24.06,24.06C2984.02,4117.65,2965.75,4116.26,2956.26,4110.48z
		 M2995.36,4101.46c15.96-15.04,15.73-62.93-0.69-78.43c-8.33-7.87-23.6-7.87-31.93,0c-14.81,13.88-17.12,56.45-4.16,74.03
		C2968.06,4109.78,2984.26,4111.87,2995.36,4101.46z"/>
	<path class="st0" d="M3144.12,4112.33c0-1.85,1.39-3.47,3.24-3.47c7.4,0,8.56-6.25,8.56-46.27c0-40.02-1.16-46.27-8.56-46.27
		c-1.85,0-3.24-0.93-3.24-2.31s8.56-2.31,20.82-2.31c12.26,0,20.82,0.93,20.82,2.31s-1.62,2.31-3.47,2.31
		c-6.94,0-10.64,10.18-9.95,26.84l0.69,15.96h23.14h23.14l0.69-15.96c0.69-16.66-3.01-26.84-9.95-26.84c-1.85,0-3.47-0.93-3.47-2.31
		s8.56-2.31,20.82-2.31c21.05,0,25.22,1.62,15.73,5.78c-6.71,3.01-8.33,13.19-8.56,52.75c-0.23,31,1.62,38.64,9.02,38.64
		c2.54,0,4.63,1.62,4.63,3.47c0,2.78-3.93,3.47-20.82,3.47c-15.27,0-20.82-0.69-20.82-3.01c0-1.62,2.31-3.93,5.32-5.09
		c4.63-2.08,5.09-4.16,5.78-21.28l0.69-19.2h-23.37h-23.14v16.43c0,18.28,2.54,25.22,9.25,25.22c2.54,0,4.63,1.62,4.63,3.47
		c0,2.78-3.93,3.47-20.82,3.47C3148.05,4115.8,3144.12,4115.1,3144.12,4112.33z"/>
	<path class="st0" d="M3266.74,4112.79c0-1.62,2.31-3.93,5.32-5.09c5.09-2.31,5.09-3.01,5.09-45.11s0-42.8-5.09-45.11
		c-3.01-1.16-5.32-3.01-5.32-4.16c0-0.93,17.35-1.39,38.64-1.16l38.64,0.69l3.01,11.57c3.7,14.34,3.7,15.04,0,15.04
		c-1.39,0-4.16-3.01-5.78-6.71c-3.7-8.33-15.27-14.11-28.92-14.11c-17.58,0-17.81,0.46-17.81,22.21v19.43h13.88
		c13.19,0,14.34-0.46,18.05-6.94c2.08-3.7,4.63-6.94,5.78-6.94c0.93,0,1.62,8.33,1.62,18.51s-0.69,18.51-1.62,18.51
		c-1.16,0-3.7-3.24-5.78-6.94c-3.7-6.48-4.86-6.94-18.05-6.94h-14.11l0.69,18.05l0.69,17.81l14.34,0.69
		c16.43,0.69,23.14-1.85,25.22-9.95c2.31-9.49,7.87-7.17,7.87,3.24c0,16.89,1.39,16.43-39.56,16.43
		C3275.53,4115.8,3266.74,4115.1,3266.74,4112.79z"/>
	<path class="st0" d="M3444.18,4114.18c-0.93-0.69-1.62-6.94-1.62-13.88c0-13.88,5.32-17.58,7.87-5.32
		c1.39,7.4,8.33,11.57,18.97,11.57h5.55l-0.46-43.26c-0.69-42.57-0.69-43.49-5.78-45.81c-9.72-4.16-5.55-5.78,15.5-5.78
		c12.26,0,20.82,0.93,20.82,2.31s-1.39,2.31-3.24,2.31s-5.09,1.62-6.94,3.7c-5.09,5.09-5.55,86.53-0.46,86.53
		c12.26,0,18.28-3.24,21.75-12.03c1.85-4.86,4.4-8.79,5.55-8.79c0.93,0,1.85,6.71,1.85,15.04v15.04h-38.87
		C3463.15,4115.8,3444.88,4115.1,3444.18,4114.18z"/>
	<path class="st0" d="M3537.42,4113.02c0-1.62,2.31-4.16,5.32-5.32c5.09-2.31,5.09-3.01,5.09-45.11s0-42.8-5.09-45.11
		c-3.01-1.16-5.32-3.01-5.32-3.93c0-1.16,17.58-1.85,38.87-1.85h39.1l2.54,11.8c1.62,6.48,2.78,12.72,2.78,13.88
		c0,4.63-4.63,1.62-8.1-5.09c-2.08-3.93-7.17-8.56-11.57-10.41c-9.72-3.93-29.38-4.16-33.08-0.46c-1.62,1.62-2.78,9.95-2.78,20.82
		v18.05h15.27c14.81,0,15.27-0.23,17.81-6.94c4.4-11.34,7.4-6.71,8.1,12.26c0.46,14.81,0,17.81-3.01,17.81
		c-1.85,0-3.47-1.39-3.47-3.24c0-7.17-6.94-10.64-21.05-10.64h-13.88l0.69,18.05l0.69,17.81l14.34,0.69
		c16.19,0.69,23.14-1.85,26.14-10.18c3.93-9.95,7.17-6.48,6.48,6.71l-0.69,12.03l-37.48,0.69
		C3545.52,4115.8,3537.42,4115.34,3537.42,4113.02z"/>
	<path class="st0" d="M3636.21,4114.18c-3.01-2.78-1.62-5.32,3.01-5.32c7.63,0,9.25-7.4,9.25-45.58c0-29.38-0.69-37.71-3.7-41.87
		c-1.85-2.78-5.09-5.09-6.94-5.09s-3.24-0.93-3.24-2.31s8.56-2.31,20.82-2.31c21.28,0,25.45,1.85,15.04,6.48
		c-5.55,2.54-5.78,3.7-5.78,21.28c0,13.88,0.69,18.51,3.01,18.51c1.85,0,10.18-10.41,18.97-23.14l15.96-23.14h12.26
		c6.71,0,12.26,1.16,12.26,2.31c0,1.39-1.62,2.31-3.47,2.31s-10.64,9.72-19.43,21.52l-16.19,21.28l7.87,3.93
		c10.64,5.55,15.04,12.72,15.04,24.06c0,13.19-7.87,22.67-21.75,26.14C3678.08,4116.03,3638.75,4116.72,3636.21,4114.18z
		 M3687.1,4103.07c10.18-7.17,8.79-27.53-2.31-33.08c-2.78-1.39-8.79-3.01-13.19-3.24l-8.1-0.69l-0.69,15.04
		c-1.16,22.44,0.23,25.45,10.64,25.45C3678.31,4106.54,3684.33,4104.93,3687.1,4103.07z"/>
	<path class="st1" d="M1391.63,3905.04c-0.69-1.85-0.93-29.84-0.69-62.23l0.69-58.99h27.76c25.68,0,28.69,0.46,40.95,6.48
		c16.19,8.1,26.37,19.66,31.23,36.09c9.25,32.39-7.4,65.47-38.64,76.35c-4.4,1.62-19.9,3.47-34.01,4.16
		C1397.64,3908.04,1392.55,3907.58,1391.63,3905.04z M1448.31,3879.36c13.65-6.94,18.97-16.66,18.97-34.24
		c0-24.75-11.8-37.25-36.32-38.87l-15.04-0.93v39.56v39.56h11.1C1433.96,3884.45,1441.83,3882.6,1448.31,3879.36z"/>
	<path class="st1" d="M2243.7,3906.42c-1.16-1.16-1.85-29.38-1.85-63.16v-61.31l28.46,1.16c31.93,1.16,43.73,5.09,56.91,18.28
		c11.34,11.57,16.43,23.83,16.43,41.18c0,19.66-3.7,31-14.11,42.8c-13.19,14.81-27.3,20.13-58.53,21.52
		C2256.88,3907.58,2244.62,3907.35,2243.7,3906.42z M2298.99,3879.59c12.72-6.25,19.2-17.81,19.2-34.93
		c0-23.83-14.81-38.87-38.64-38.87h-12.26v39.33v39.33h10.87C2284.41,3884.45,2293.21,3882.36,2298.99,3879.59z"/>
	<path class="st1" d="M1601.93,3901.1c-3.01-2.08-7.87-10.64-7.87-14.34c0-4.63,11.34-13.88,17.35-13.88
		c12.72,0,20.13,17.81,10.87,26.14C1617.89,3902.95,1606.55,3904.11,1601.93,3901.1z"/>
	<path class="st1" d="M2375.34,3900.18c-2.08-1.62-4.4-5.78-5.09-9.25c-1.16-4.86-0.23-7.63,4.4-12.03
		c3.24-3.47,8.33-6.02,11.34-6.02c12.72,0,20.59,17.81,11.34,26.14C2392.23,3903.65,2380.89,3904.11,2375.34,3900.18z"/>
	<path class="st1" d="M2012.81,3881.21c0-18.51-0.23-19.67-5.09-20.36c-4.4-0.46-5.55-2.31-6.02-10.41
		c-0.69-9.25-0.23-9.95,5.09-9.95c6.02,0,6.02-0.23,6.02-18.51c0-23.6,3.93-33.78,14.81-38.17c10.41-4.4,18.28-4.4,26.84,0
		l6.94,3.47l-3.93,8.1c-3.24,6.71-4.86,7.87-10.87,7.4l-7.17-0.46l-0.69,19.2l-0.69,18.97h9.49h9.25v10.41v10.41h-9.25h-9.25v19.66
		v19.67h-12.72h-12.72V3881.21z"/>
	<path class="st1" d="M2998.83,3877.04c-16.43-4.63-21.98-28.23-9.95-41.64c6.02-6.71,8.1-7.63,18.74-7.63
		c10.64,0,12.72,0.93,18.74,7.63c4.63,5.32,6.71,9.95,6.71,15.73C3033.07,3871.03,3018.03,3882.6,2998.83,3877.04z M3022.89,3867.79
		c13.65-13.88,4.16-36.55-15.27-36.55c-20.82,0-29.15,23.37-13.42,37.94c6.02,5.32,8.56,6.25,15.27,5.09
		C3014.1,3873.57,3020.11,3870.57,3022.89,3867.79z"/>
	<path class="st1" d="M2996.05,3852.06c0-10.87,0.69-13.88,3.47-13.88c2.08,0,3.47,2.08,3.47,5.78c0,8.1,6.71,6.94,9.95-1.62
		c0.69-2.31,2.54-4.16,3.93-4.16c3.01,0,3.01,8.56,0,10.41c-1.39,0.93-1.16,3.01,0.46,5.55c4.63,7.63,0.69,11.8-10.87,11.8h-10.41
		V3852.06z M3012.25,3857.84c0-1.85-2.08-3.47-4.63-3.47s-4.63,1.62-4.63,3.47c0,1.85,2.08,3.47,4.63,3.47
		S3012.25,3859.69,3012.25,3857.84z"/>
	<path class="st1" d="M2103.96,3861.54c-24.75-11.1-32.39-45.81-14.58-66.17c14.58-16.43,38.87-18.97,56.91-6.02
		c11.57,8.33,16.89,19.43,16.89,34.93C2163.19,3855.76,2132.88,3874.73,2103.96,3861.54z M2129.64,3839.1
		c5.78-2.31,11.1-14.34,9.25-21.52c-2.31-9.25-7.87-14.11-16.66-14.11c-10.64,0-16.89,6.94-16.89,18.28
		C2105.35,3835.17,2117.38,3843.73,2129.64,3839.1z"/>
	<path class="st1" d="M2626.35,3861.08c-15.04-7.4-22.44-20.13-22.44-37.71c0-10.64,1.39-16.19,5.32-22.67
		c18.28-29.61,63.16-24.52,75.88,8.56c7.4,19.9-1.39,42.57-20.36,51.82C2651.8,3867.33,2639.08,3867.33,2626.35,3861.08z
		 M2657.59,3835.4c3.47-3.24,5.32-7.63,5.32-12.72c0-10.64-3.01-15.73-11.34-18.97c-5.55-2.31-7.87-2.31-13.65,0.69
		c-7.63,3.93-9.72,7.87-9.72,17.35C2628.2,3837.94,2646.25,3846.27,2657.59,3835.4z"/>
	<path class="st1" d="M1517.71,3821.75v-39.33l12.26,0.69l12.03,0.69l0.69,23.14c0.69,26.61,3.01,30.54,17.35,31.7
		c8.56,0.69,9.49,1.39,12.26,9.72c1.85,4.86,2.54,9.72,1.85,10.87c-2.78,4.63-18.97,2.08-26.14-3.93l-7.17-6.02v6.02
		c0,5.78-0.69,6.02-11.57,6.02h-11.57V3821.75z"/>
	<path class="st1" d="M1598.69,3821.98v-39.33h11.57h11.57v39.33v39.33h-11.57h-11.57V3821.98z"/>
	<path class="st1" d="M1644.96,3859.69c0-1.85,37.02-72.64,40.02-76.58c1.85-2.31,7.63,6.94,22.67,35.86
		c11.34,21.28,20.59,39.56,20.59,40.72c0,0.93-5.09,1.62-11.57,1.62c-12.96,0-13.88-1.16-24.29-28.46
		c-4.63-12.26-5.32-13.19-6.48-8.1c-0.93,3.24-4.63,12.72-8.33,21.28l-6.94,15.27h-12.96
		C1650.74,3861.31,1644.96,3860.62,1644.96,3859.69z"/>
	<path class="st1" d="M1766.42,3858.07c-11.1-4.86-21.52-18.28-23.37-30.31c-4.4-29.61,23.37-52.75,54.83-45.58
		c6.25,1.62,14.11,4.4,17.35,6.48l5.78,3.93l-7.4,7.63c-6.94,7.17-7.4,7.4-15.04,4.16c-11.1-4.63-18.28-3.93-25.68,2.54l-6.48,5.55
		l29.61,0.23h29.38v8.79c0,14.11-8.79,28.46-20.82,34.7C1793.02,3862.01,1777.29,3862.7,1766.42,3858.07z M1794.87,3839.1
		c9.95-6.94,6.48-10.18-11.1-10.18c-8.79,0-16.19,0.93-16.19,2.08c0,3.7,11.8,11.8,17.12,11.8
		C1787.47,3842.8,1792.1,3841.18,1794.87,3839.1z"/>
	<path class="st1" d="M1852.48,3859.92c-0.93-0.93-1.62-18.74-1.62-39.56v-37.71h12.72h12.72v23.83c0,12.96,0.93,24.75,1.85,26.14
		c5.09,7.63,19.66,9.02,24.06,2.31c0.93-1.39,1.85-13.65,1.85-27.3v-24.99h12.72h12.72v26.61c0,29.61-2.54,39.1-12.72,46.96
		c-9.25,7.17-24.06,6.94-33.31-0.69l-6.94-6.02l-0.69,5.32c-0.69,4.63-2.31,5.32-11.1,6.02
		C1858.96,3861.31,1853.41,3860.85,1852.48,3859.92z"/>
	<path class="st1" d="M2373.72,3821.98v-39.33h11.57h11.57v39.33v39.33h-11.57h-11.57V3821.98z"/>
	<path class="st1" d="M2440.81,3859.69c-12.72-4.63-18.51-18.51-12.96-31.46c3.7-9.02,9.02-12.72,24.52-16.66
		c13.88-3.47,15.96-10.41,3.01-10.41c-4.86,0-11.34,1.62-14.11,3.7c-4.63,3.24-5.55,3.24-12.26-1.39
		c-7.87-5.78-7.87-8.33,0.46-14.58c8.33-6.02,21.52-8.56,35.17-6.25c15.27,2.31,22.44,9.95,22.44,24.06
		c0,12.72-6.25,18.74-24.52,24.29c-9.25,2.78-13.88,5.32-14.34,8.1c-0.69,3.7,0.46,4.16,8.1,3.24c4.86-0.69,10.41-1.85,12.26-2.54
		c2.08-0.93,5.55,1.16,8.79,5.32l5.32,6.94l-7.63,4.63C2467.65,3861.08,2449.37,3862.7,2440.81,3859.69z"/>
	<path class="st1" d="M2533.35,3858.77c-14.58-5.78-23.14-19.67-23.14-37.02c0-14.34,6.94-27.99,17.35-34.47
		c14.81-9.25,37.25-8.1,50.67,2.54l6.25,4.86l-8.79,7.63c-7.63,6.71-9.25,7.17-12.49,4.4c-1.85-1.85-7.4-3.24-12.03-3.24
		c-15.96,0-23.6,19.9-12.03,31.23c6.48,6.71,16.19,7.4,22.21,2.08c4.63-4.16,9.49-2.31,16.89,5.78c5.09,5.55,2.78,9.72-8.1,15.5
		C2562.73,3861.77,2541.91,3862.24,2533.35,3858.77z"/>
	<path class="st1" d="M2702.7,3858.53c1.85-6.94,40.02-77.73,41.41-76.81c1.85,1.16,41.41,76.11,41.41,78.2
		c0,0.69-5.09,1.39-11.57,1.39c-11.1,0-11.57-0.23-16.43-9.72c-2.78-5.55-6.94-15.04-9.02-21.52l-3.93-11.57l-2.54,8.1
		c-1.16,4.4-5.09,14.11-8.56,21.52l-6.02,13.19h-12.72C2705.48,3861.31,2702.01,3860.39,2702.7,3858.53z"/>
	<path class="st1" d="M2820.23,3855.99c-17.58-9.25-25.45-32.16-17.58-50.9c7.17-17.58,32.16-27.99,53.44-22.67
		c6.02,1.39,13.42,4.4,16.43,6.48l5.78,3.7l-7.17,7.4l-7.17,7.4l-9.72-3.47c-10.87-3.93-19.9-2.78-26.14,3.7
		c-3.93,3.7-2.78,3.93,24.75,5.09l28.69,1.16l-0.46,10.87c-0.46,14.58-7.4,25.68-20.13,31.7
		C2847.76,3862.93,2832.95,3862.7,2820.23,3855.99z M2852.15,3839.1c9.95-6.94,6.48-10.18-11.1-10.18c-8.79,0-16.19,0.93-16.19,2.08
		c0,3.7,11.8,11.8,17.12,11.8C2844.75,3842.8,2849.38,3841.18,2852.15,3839.1z"/>
	<path class="st1" d="M2909.76,3859.92c-0.93-0.93-1.62-18.74-1.62-39.56v-37.71h12.72h12.72v22.67c0,27.99,2.54,32.85,16.89,32.85
		c9.49,0,9.95,0.23,13.42,10.41c2.08,5.55,3.24,10.87,2.54,11.57c-0.69,0.69-5.55,1.16-10.87,1.16c-7.17,0-11.34-1.62-15.73-5.55
		l-6.02-5.55l-0.69,5.09c-0.46,3.93-2.54,5.09-11.1,5.55C2916.24,3861.31,2910.69,3860.85,2909.76,3859.92z"/>
</g>
</svg>
